<?xml version="1.0" encoding="UTF-8"?><svg id="Layer_1" xmlns="http://www.w3.org/2000/svg" xmlns:xlink="http://www.w3.org/1999/xlink" viewBox="0 0 512 512"><defs><style>.cls-1{fill:none;}.cls-2{clip-path:url(#clippath);}.cls-3{fill:#f2a746;}</style><clipPath id="clippath"><rect class="cls-1" x="-306.53" y="15" width="1125.05" height="643"/></clipPath></defs><g class="cls-2"><path class="cls-3" d="m320.2,187.79c-2.54.31-6.41.04-7.79-2.54-1.55-.77-2.88-2.09-3.45-3.68-1.35-3.57.1-8.69,2.95-11.28.35-.32.71-.59,1.08-.86,1.28-2.01,3.16-3.58,5.55-4.11,4.2-.92,7.59.4,10.36,3.59,2.47,2.85,2.58,7.36,1.09,10.63-.1.23-.23.43-.34.65-.15.84-.4,1.63-.79,2.4-1.67,3.35-5.12,4.8-8.66,5.2"/><path class="cls-3" d="m331.19,206.37c-3.34-1.36-4.92-4.47-5.37-7.76-1.91-4.32-1.43-9.28,1.81-13.05,1.38-1.62,3.22-2.76,5.23-3.46,2.56-2.19,5.37-3.4,8.84-2.62,3.02.68,5.69,2.81,6.62,5.76.05.14.08.28.1.41.41.4.81.84,1.14,1.33,2.19,3.23,1.39,7.06.1,10.42-1.2,3.16-3.76,6.18-6.69,7.88-3.73,2.17-7.74,2.75-11.78,1.09"/><path class="cls-3" d="m304.3,243.19c-14.71,2.72-19.83-14.17-18.89-25.34.86-10.44,7.16-20.06,17.06-21.97,1.35-.57,2.77-.98,4.24-1.17,8.26-1.14,14.38,6.24,17.34,12.87,6.62,14.82-4.52,32.81-19.75,35.61"/><path class="cls-3" d="m272.01,269.18c-5.63-2.77-6.77-9.95-2.97-14.68,3.17-3.94,6.7-7.29,10.59-10.53,5.76-4.81,14.74,3.23,10.99,9.55-2.16,3.66-4.1,7.53-5.94,11.35-2.25,4.65-8.08,6.57-12.66,4.31"/><path class="cls-3" d="m247.89,293.55c-4.71-4.77-3.67-13.39,2.9-15.49.08-.05,3.63-3.03,4.59-3.85,1.72-1.49,3.5-3.4,5.46-4.44,4.87-2.57,11.14.62,10.01,6.66-.55,2.93-2.47,5.32-4.09,7.75-.71,1.09-10.89,17.45-18.89,9.37"/><path class="cls-3" d="m224.83,317.26c-4.55-3.92-3.98-12.69,1.82-15.12-.35.18,4.82-2.11,5.74-2.44.23-.11,1.53-.88,1.6-.91,2.38-1.64,4.41-4.34,7.47-4.51,2.85-.13,5.07,2.01,5.37,4.77.33,3.13-2.6,6.21-4.28,8.63.48-.7-1.75,3.97-3.33,6.47-2.1,3.35-9.9,7-14.4,3.1"/><path class="cls-3" d="m227.86,301.74c-.42.11-.84.24-1.21.4.17-.11.54-.24,1.21-.4"/><path class="cls-3" d="m197.21,339.58c-3.88-5.72.58-12.52,7.95-14.49,2-1.43,4.22-3.31,5.96-5.02,2.49-2.4,5.07-4.06,8.34-2.45,3.48,1.72,5.61,6.64,3.47,10.19-2.41,4.01-5.14,7.24-8.55,10.18-.05.14-.1.26-.15.38-2.79,7.08-13.09,6.97-17.01,1.21"/><path class="cls-3" d="m173.72,364.05c-4.16-3.58-3.31-9.61.75-12.78,1.72-1.36,3.6-2.44,5.49-3.55,1.98-1.13,4.93-1.94,6.42-2.83,4.8-2.88,9.6,1.8,7.77,6.77-.87,2.38-2.37,4.44-3.84,6.47-1.37,1.9-3.66,3.3-5.18,5.1-2.83,3.38-8.11,3.67-11.41.82"/><path class="cls-3" d="m146.4,369.57c2.97-1.71,6.37-2.09,9.5-3.47,1.58-.71,3.13-1.98,5.02-2.09,1.81-.1,4.18.69,5.16,2.34,2.46,4.1-.25,7.36-3.22,10.1-2.83,2.61-5.54,5.71-9.32,7.45-8.27,3.81-15.02-9.87-7.15-14.34"/><path class="cls-3" d="m118.54,400c-5.89,1.18-9.23-8.64-3.85-11.32,5.16-2.56,10.98-3.53,16.4-5.44,5.5-1.98,9.87,6.31,4.66,9.32-5.38,3.08-11.1,6.25-17.2,7.44"/><path class="cls-3" d="m88.21,408.25c-5.09.26-6.69-8.41-1.84-9.99,4.66-1.52,9.68-1.6,14.47-2.57,4.88-.97,7.52,6.56,2.76,8.42-4.9,1.94-10.1,3.88-15.39,4.14"/><path class="cls-3" d="m378.56,482.17c-12.6-8.84-22.79-20.51-28.13-34.78-42.47-113.73-40.89-199.35-40.4-200.95.36-1.18,2.38-1.7,2.71-.17.11.45,9.84,6.18,21.72,29.45,17.35,33.93,31.45,69.35,46.4,104.36,7.52,17.65,34.03,85.77,28.2,101.06-5.54,14.61-21.63,7.25-30.5,1.02"/><path class="cls-3" d="m491.36,424.26c-15.07-.52-42.33-16.16-52.14-26-55.58-55.91-107.24-159.94-111.24-167.83-.47-.89-.6-1.58.12-1.92,15.89-7.16,73.24,50.36,81.68,58.86,21.52,21.66,86.11,107.68,93.64,118.75,5.84,8.58-1.78,18.47-12.07,18.14"/><path class="cls-3" d="m123.35,222.4c-20.02-3.84-42.87-4.51-61.62-12.4-18.54-7.78-36.2-18.74-51.11-32.24-7.98-7.23-3.54-20.63,7.27-21.44,24.84-1.86,134.5,16.42,146.49,19.74,22,6.07,104.79,17.52,113.37,32.74,1.45,2.6.09,5.28-2.24,5.95-4.96,2.49-110.39,15.68-152.16,7.66"/><path class="cls-3" d="m100.47,98.41c-29.61-28.03-55.75-65.43-55.38-73.13.25-5.34,3.34-10.48,9.12-10.27,76.37,2.94,239.66,154.04,233.98,175.91-1.04,3.97-149.53-56.36-187.72-92.51"/></g></svg>